<?xml version="1.0" encoding="UTF-8" standalone="no"?>
<svg
   xmlns:dc="http://purl.org/dc/elements/1.1/"
   xmlns:cc="http://creativecommons.org/ns#"
   xmlns:rdf="http://www.w3.org/1999/02/22-rdf-syntax-ns#"
   xmlns:svg="http://www.w3.org/2000/svg"
   xmlns="http://www.w3.org/2000/svg"
   xmlns:sodipodi="http://sodipodi.sourceforge.net/DTD/sodipodi-0.dtd"
   xmlns:inkscape="http://www.inkscape.org/namespaces/inkscape"
   viewBox="0 0 167 167"
   role="presentation"
   focusable="false"
   aria-hidden="true"
   version="1.1"
   id="svg3809"
   sodipodi:docname="dw.svg"
   inkscape:version="0.92.3 (2405546, 2018-03-11)"
   inkscape:export-filename="D:\Projects\VisualStudio Code\testclone\setup-electron-react\src\images\dw250.png"
   inkscape:export-xdpi="143.71257"
   inkscape:export-ydpi="143.71257">
  <metadata
     id="metadata3815">
    <rdf:RDF>
      <cc:Work
         rdf:about="">
        <dc:format>image/svg+xml</dc:format>
        <dc:type
           rdf:resource="http://purl.org/dc/dcmitype/StillImage" />
        <dc:title></dc:title>
      </cc:Work>
    </rdf:RDF>
  </metadata>
  <defs
     id="defs3813" />
  <sodipodi:namedview
     pagecolor="#ffffff"
     bordercolor="#666666"
     borderopacity="1"
     objecttolerance="10"
     gridtolerance="10"
     guidetolerance="10"
     inkscape:pageopacity="0"
     inkscape:pageshadow="2"
     inkscape:window-width="1920"
     inkscape:window-height="1017"
     id="namedview3811"
     showgrid="false"
     inkscape:zoom="5.0778443"
     inkscape:cx="56.716981"
     inkscape:cy="83.598467"
     inkscape:window-x="-8"
     inkscape:window-y="-8"
     inkscape:window-maximized="1"
     inkscape:current-layer="svg3809" />
  <g
     id="g3807">
    <path
       d="M 44.8,53.7 H 59.7 V 68.6 H 44.8 Z M 33,94.1 H 47.9 V 109 H 33 Z m 21.2,0 H 69.1 V 109 H 54.2 Z m 21,0 H 90.1 V 109 H 75.2 Z M 33,73.9 H 47.9 V 88.8 H 33 Z m 21.2,0 H 69.1 V 88.8 H 54.2 Z"
       id="path3765"
       inkscape:connector-curvature="0"
       style="fill:#7fbb42" />
    <path
       d="M 66,6.2 7.3,37.4 v 9.1 h 12 v 63 h 10 v -63 h 73 v 59 h 11 v -59 h 11 v -9.1 z"
       id="path3767"
       inkscape:connector-curvature="0"
       style="fill:#4682b4;fill-opacity:1" />
    <path
       d="M 59.7,68.6 H 58 v -13 H 44.8 v -1.9 h 14.9 z"
       id="path3769"
       inkscape:connector-curvature="0"
       style="opacity:0.8;fill:#b8d433" />
    <path
       d="m 44.8,53.7 h 1.7 v 13 h 13.2 v 1.9 H 44.8 Z"
       id="path3771"
       inkscape:connector-curvature="0"
       style="opacity:0.5;fill:#b8d433" />
    <path
       d="m 47.9,88.8 h -1.7 v -13 H 33 v -1.9 h 14.9 z"
       id="path3773"
       inkscape:connector-curvature="0"
       style="opacity:0.8;fill:#b8d433" />
    <path
       d="m 33,73.9 h 1.7 v 13 h 13.2 v 1.9 H 33 Z"
       id="path3775"
       inkscape:connector-curvature="0"
       style="opacity:0.5;fill:#b8d433" />
    <path
       d="m 69.2,88.8 h -1.8 v -13 H 54.2 v -1.9 h 15 z"
       id="path3777"
       inkscape:connector-curvature="0"
       style="opacity:0.8;fill:#b8d433" />
    <path
       d="M 54.2,73.9 H 56 v 13 h 13.2 v 1.9 h -15 z"
       id="path3779"
       inkscape:connector-curvature="0"
       style="opacity:0.5;fill:#b8d433" />
    <path
       d="M 47.9,109 H 46.2 V 96 H 33 v -1.9 h 14.9 z"
       id="path3781"
       inkscape:connector-curvature="0"
       style="opacity:0.8;fill:#b8d433" />
    <path
       d="m 33,94.1 h 1.7 v 13 H 47.9 V 109 H 33 Z"
       id="path3783"
       inkscape:connector-curvature="0"
       style="opacity:0.5;fill:#b8d433" />
    <path
       d="M 69.2,109 H 67.4 V 96 H 54.2 v -1.9 h 15 z"
       id="path3785"
       inkscape:connector-curvature="0"
       style="opacity:0.8;fill:#b8d433" />
    <path
       d="M 54.2,94.1 H 56 v 13 h 13.2 v 1.9 h -15 z"
       id="path3787"
       inkscape:connector-curvature="0"
       style="opacity:0.5;fill:#b8d433" />
    <path
       d="M 90.1,109 H 88.4 V 96 H 75.2 v -1.9 h 14.9 z"
       id="path3789"
       inkscape:connector-curvature="0"
       style="opacity:0.8;fill:#b8d433" />
    <path
       d="m 75.2,94.1 h 1.7 v 13 H 90.1 V 109 H 75.2 Z"
       id="path3791"
       inkscape:connector-curvature="0"
       style="opacity:0.5;fill:#b8d433" />
    <path
       d="M 47,68.6 H 44.8 V 66.9 L 57.7,53.7 h 2 v 1.5 z m 9.4,20.2 h -2.2 v -1.7 l 13,-13.2 h 2 v 1.5 z m -21.2,0 H 33 V 87.1 L 45.9,73.9 h 2 v 1.5 z m 0,20.2 H 33 v -1.7 L 45.9,94.1 h 2 v 1.5 z m 21.2,0 h -2.2 v -1.7 l 13,-13.2 h 2 v 1.5 z m 21,0 h -2.2 v -1.7 L 88.1,94.1 h 2 v 1.5 z"
       id="path3793"
       inkscape:connector-curvature="0"
       style="opacity:0.8;fill:#b8d433" />
    <path
       d="m 95.6,80.5 v 64.9 c 0,6.7 15.1,12.2 33.7,12.2 V 80.5 Z"
       id="path3795"
       fill="#5ab4d9"
       inkscape:connector-curvature="0"
       style="fill:#4682b4;fill-opacity:1" />
    <path
       d="m 128.8,157.6 h 0.5 c 18.6,0 33.7,-5.5 33.7,-12.2 V 80.5 h -34.2 z"
       id="path3797"
       inkscape:connector-curvature="0"
       style="fill:#5ab4d9" />
    <path
       d="m 163,80.5 c 0,6.7 -15.1,12.2 -33.7,12.2 -18.6,0 -33.7,-5.5 -33.7,-12.2 0,-6.7 15.1,-12.2 33.7,-12.2 18.6,0 33.7,5.4 33.7,12.2"
       class="msportalfx-svg-c01"
       id="path3799"
       inkscape:connector-curvature="0"
       style="fill:#ffffff;fill-opacity:1" />
    <path
       d="m 156.1,79.8 c 0,4.4 -12,8.1 -26.8,8.1 -14.8,0 -26.8,-3.6 -26.8,-8.1 0,-4.4 12,-8.1 26.8,-8.1 14.8,0 26.8,3.6 26.8,8.1"
       id="path3801"
       inkscape:connector-curvature="0"
       style="fill:#7fbb42" />
    <path
       d="m 150.5,84.7 c 3.5,-1.4 5.6,-3.1 5.6,-4.9 0,-4.4 -12,-8.1 -26.8,-8.1 -14.8,0 -26.8,3.6 -26.8,8.1 0,1.9 2.1,3.6 5.6,4.9 4.9,-1.9 12.6,-3.1 21.2,-3.1 8.6,-0.1 16.3,1.2 21.2,3.1"
       id="path3803"
       inkscape:connector-curvature="0"
       style="fill:#b8d433" />
    <path
       d="m 104,127 v -4.6 c 0.8,0.7 1.7,1.2 2.7,1.6 1,0.3 2,0.5 2.9,0.5 0.6,0 1.1,-0.1 1.5,-0.2 0.4,-0.1 0.8,-0.2 1.1,-0.4 0.3,-0.2 0.5,-0.4 0.6,-0.7 0.1,-0.3 0.2,-0.5 0.2,-0.8 0,-0.4 -0.1,-0.8 -0.3,-1.1 -0.2,-0.3 -0.5,-0.6 -0.9,-0.9 -0.4,-0.3 -0.9,-0.5 -1.4,-0.8 -0.5,-0.2 -1.1,-0.5 -1.8,-0.8 -1.6,-0.7 -2.8,-1.5 -3.6,-2.4 -0.8,-1 -1.2,-2.1 -1.2,-3.5 0,-1.1 0.2,-2 0.6,-2.7 0.4,-0.8 1,-1.4 1.7,-1.9 0.7,-0.5 1.6,-0.9 2.6,-1.1 1,-0.2 2,-0.3 3.1,-0.3 1.1,0 2,0.1 2.8,0.2 0.8,0.1 1.6,0.3 2.3,0.6 v 4.3 c -0.3,-0.2 -0.7,-0.4 -1.1,-0.6 -0.4,-0.2 -0.8,-0.3 -1.2,-0.4 -0.4,-0.1 -0.9,-0.2 -1.3,-0.3 -0.4,-0.1 -0.8,-0.1 -1.2,-0.1 -0.5,0 -1,0 -1.4,0.1 -0.4,0.1 -0.8,0.2 -1.1,0.4 -0.3,0.2 -0.5,0.4 -0.7,0.6 -0.2,0.3 -0.2,0.5 -0.2,0.8 0,0.3 0.1,0.6 0.3,0.9 0.2,0.3 0.4,0.5 0.8,0.8 0.3,0.2 0.7,0.5 1.2,0.7 0.5,0.2 1,0.5 1.6,0.7 0.8,0.3 1.6,0.7 2.2,1.1 0.7,0.4 1.2,0.8 1.7,1.3 0.5,0.5 0.8,1 1.1,1.7 0.2,0.6 0.4,1.3 0.4,2.2 0,1.1 -0.2,2.1 -0.6,2.9 -0.4,0.8 -1,1.4 -1.8,1.9 -0.7,0.5 -1.6,0.8 -2.6,1 -1,0.2 -2,0.3 -3.1,0.3 -1.1,0 -2.2,-0.1 -3.2,-0.3 -1.1,0 -2,-0.3 -2.7,-0.7 z m 25.9,1.2 c -2.9,0 -5.3,-1 -7.2,-2.9 -1.8,-1.9 -2.8,-4.4 -2.8,-7.5 0,-3.2 0.9,-5.8 2.8,-7.8 1.9,-2 4.3,-3 7.4,-3 2.9,0 5.3,1 7.1,2.9 1.8,1.9 2.7,4.4 2.7,7.6 0,3.2 -0.9,5.8 -2.8,7.8 l -0.2,0.2 -0.2,0.2 5.2,5 h -6.5 l -2.7,-2.8 c -0.7,0.2 -1.7,0.3 -2.8,0.3 z m 0.2,-17.2 c -1.6,0 -2.9,0.6 -3.9,1.8 -1,1.2 -1.4,2.8 -1.4,4.8 0,2 0.5,3.6 1.4,4.8 1,1.2 2.2,1.8 3.7,1.8 1.6,0 2.8,-0.6 3.8,-1.7 0.9,-1.2 1.4,-2.8 1.4,-4.8 0,-2.1 -0.5,-3.8 -1.4,-5 -0.8,-1.1 -2,-1.7 -3.6,-1.7 z m 25.5,16.8 H 143.4 V 107.3 H 148 V 124 h 7.6 z"
       id="path3805"
       inkscape:connector-curvature="0"
       style="fill:#ffffff;fill-opacity:1" />
  </g>
</svg>
